<svg width="71" height="59" viewBox="0 0 71 59" fill="none" xmlns="http://www.w3.org/2000/svg">
<g filter="url(#filter0_d)">
<rect x="5" y="7.9563" width="4" height="44.6724" fill="#C4C4C4"/>
<rect x="5" y="7.9563" width="4" height="44.6724" fill="#C4C4C4"/>
<rect x="5" y="7.9563" width="4" height="44.6724" fill="#C4C4C4"/>
<rect x="5" y="7.9563" width="4" height="44.6724" fill="#D8514E"/>
<rect width="4.1273" height="57.0048" transform="matrix(-0.00257527 0.999997 -0.999997 -0.00253748 62.0155 48.8024)" fill="#C4C4C4"/>
<rect width="4.1273" height="57.0048" transform="matrix(-0.00257527 0.999997 -0.999997 -0.00253748 62.0155 48.8024)" fill="#C4C4C4"/>
<rect width="4.1273" height="57.0048" transform="matrix(-0.00257527 0.999997 -0.999997 -0.00253748 62.0155 48.8024)" fill="#C4C4C4"/>
<rect width="4.1273" height="57.0048" transform="matrix(-0.00257527 0.999997 -0.999997 -0.00253748 62.0155 48.8024)" fill="#D8514E"/>
<path d="M3 8.94903L7 2L11 8.94903H3Z" fill="#C4C4C4"/>
<path d="M3 8.94903L7 2L11 8.94903H3Z" fill="#C4C4C4"/>
<path d="M3 8.94903L7 2L11 8.94903H3Z" fill="#C4C4C4"/>
<path d="M3 8.94903L7 2L11 8.94903H3Z" fill="#D8514E"/>
<rect x="16.0011" y="6.96362" width="2" height="38.7161" fill="#C4C4C4"/>
<rect x="16.0011" y="6.96362" width="2" height="38.7161" fill="#C4C4C4"/>
<rect x="16.0011" y="6.96362" width="2" height="38.7161" fill="#C4C4C4"/>
<rect x="16.0011" y="6.96362" width="2" height="38.7161" fill="#2EA8D9"/>
<rect x="25.0019" y="25.8253" width="1" height="19.8544" fill="#C4C4C4"/>
<rect x="25.0019" y="25.8253" width="1" height="19.8544" fill="#C4C4C4"/>
<rect x="25.0019" y="25.8253" width="1" height="19.8544" fill="#C4C4C4"/>
<rect x="25.0019" y="25.8253" width="1" height="19.8544" fill="#2A2B2D"/>
<rect x="34.0026" y="29.7961" width="1" height="15.8835" fill="#C4C4C4"/>
<rect x="34.0026" y="29.7961" width="1" height="15.8835" fill="#C4C4C4"/>
<rect x="34.0026" y="29.7961" width="1" height="15.8835" fill="#C4C4C4"/>
<rect x="34.0026" y="29.7961" width="1" height="15.8835" fill="#2A2B2D"/>
<rect x="43.0034" y="9.94177" width="2" height="35.7379" fill="#C4C4C4"/>
<rect x="43.0034" y="9.94177" width="2" height="35.7379" fill="#C4C4C4"/>
<rect x="43.0034" y="9.94177" width="2" height="35.7379" fill="#C4C4C4"/>
<rect x="43.0034" y="9.94177" width="2" height="35.7379" fill="#2EA8D9"/>
<rect x="52.0042" y="20.8617" width="1" height="24.818" fill="#C4C4C4"/>
<rect x="52.0042" y="20.8617" width="1" height="24.818" fill="#C4C4C4"/>
<rect x="52.0042" y="20.8617" width="1" height="24.818" fill="#C4C4C4"/>
<rect x="52.0042" y="20.8617" width="1" height="24.818" fill="#2A2B2D"/>
<path d="M61.0183 46.6724L67.9936 50.8415L61.0055 54.9895L61.0183 46.6724Z" fill="#C4C4C4"/>
<path d="M61.0183 46.6724L67.9936 50.8415L61.0055 54.9895L61.0183 46.6724Z" fill="#C4C4C4"/>
<path d="M61.0183 46.6724L67.9936 50.8415L61.0055 54.9895L61.0183 46.6724Z" fill="#C4C4C4"/>
<path d="M61.0183 46.6724L67.9936 50.8415L61.0055 54.9895L61.0183 46.6724Z" fill="#D8514E"/>
<path d="M11.5 20.3653L21.0008 32.2779L30.5016 36.2488L39.5024 27.3143L48.5031 22.3507L61.0042 27.3143" stroke="#D8514E"/>
<ellipse cx="7" cy="50.6432" rx="1" ry="0.992719" fill="#2EA8D9"/>
<ellipse cx="11" cy="50.6432" rx="1" ry="0.992719" fill="#2A2B2D"/>
<ellipse cx="15" cy="50.6432" rx="1" ry="0.992719" fill="#2A2B2D"/>
<ellipse cx="19.0013" cy="50.6432" rx="1" ry="0.992719" fill="#2A2B2D"/>
<ellipse cx="23.0016" cy="50.6432" rx="1" ry="0.992719" fill="#2A2B2D"/>
<ellipse cx="27.002" cy="50.6432" rx="1" ry="0.992719" fill="#2A2B2D"/>
<ellipse cx="31.0023" cy="50.6432" rx="1" ry="0.992719" fill="#2A2B2D"/>
<ellipse cx="35.0026" cy="50.6432" rx="1" ry="0.992719" fill="#2A2B2D"/>
<ellipse cx="39.003" cy="50.6432" rx="1" ry="0.992719" fill="#2A2B2D"/>
<ellipse cx="43.0033" cy="50.6432" rx="1" ry="0.992719" fill="#2A2B2D"/>
<ellipse cx="47.0037" cy="50.6432" rx="1" ry="0.992719" fill="#2A2B2D"/>
<ellipse cx="51.004" cy="50.6432" rx="1" ry="0.992719" fill="#2A2B2D"/>
<ellipse cx="55.0043" cy="50.6432" rx="1" ry="0.992719" fill="#2A2B2D"/>
<ellipse cx="59.0047" cy="50.6432" rx="1" ry="0.992719" fill="#2A2B2D"/>
<ellipse cx="7" cy="46.6723" rx="1" ry="0.992719" fill="#2A2B2D"/>
<ellipse cx="7" cy="42.7015" rx="1" ry="0.992719" fill="#2A2B2D"/>
<ellipse cx="7" cy="38.7306" rx="1" ry="0.992719" fill="#2A2B2D"/>
<ellipse cx="7" cy="34.7597" rx="1" ry="0.992719" fill="#2A2B2D"/>
<ellipse cx="7" cy="30.7889" rx="1" ry="0.992719" fill="#2A2B2D"/>
<ellipse cx="7" cy="26.818" rx="1" ry="0.992719" fill="#2A2B2D"/>
<ellipse cx="7" cy="22.8471" rx="1" ry="0.992719" fill="#2A2B2D"/>
<ellipse cx="7" cy="18.8762" rx="1" ry="0.992719" fill="#2A2B2D"/>
<ellipse cx="7" cy="14.9054" rx="1" ry="0.992719" fill="#2A2B2D"/>
<ellipse cx="7" cy="10.9345" rx="1" ry="0.992719" fill="#2A2B2D"/>
</g>
<defs>
<filter id="filter0_d" x="0" y="0" width="70.9936" height="58.9895" filterUnits="userSpaceOnUse" color-interpolation-filters="sRGB">
<feFlood flood-opacity="0" result="BackgroundImageFix"/>
<feColorMatrix in="SourceAlpha" type="matrix" values="0 0 0 0 0 0 0 0 0 0 0 0 0 0 0 0 0 0 127 0" result="hardAlpha"/>
<feOffset dy="1"/>
<feGaussianBlur stdDeviation="1.5"/>
<feColorMatrix type="matrix" values="0 0 0 0 0 0 0 0 0 0 0 0 0 0 0 0 0 0 0.4 0"/>
<feBlend mode="normal" in2="BackgroundImageFix" result="effect1_dropShadow"/>
<feBlend mode="normal" in="SourceGraphic" in2="effect1_dropShadow" result="shape"/>
</filter>
</defs>
</svg>
